<svg xmlns="http://www.w3.org/2000/svg" xmlns:xlink="http://www.w3.org/1999/xlink" width="500" zoomAndPan="magnify" viewBox="0 0 375 112.499997" height="150" preserveAspectRatio="xMidYMid meet" version="1.0"><defs><g/></defs><g fill="#1f69cb" fill-opacity="1"><g transform="translate(0.829651, 74.9219)"><g><path d="M 16.140625 0.578125 C 13.460938 0.578125 10.953125 0.238281 8.609375 -0.4375 C 6.273438 -1.125 4.40625 -1.925781 3 -2.84375 L 2.265625 -12.421875 L 3 -12.5625 C 4.550781 -9.0625 6.601562 -6.203125 9.15625 -3.984375 C 11.71875 -1.765625 14.632812 -0.628906 17.90625 -0.578125 C 20.1875 -0.535156 22 -1.160156 23.34375 -2.453125 C 24.6875 -3.742188 25.359375 -5.21875 25.359375 -6.875 C 25.359375 -9.207031 24.46875 -10.957031 22.6875 -12.125 C 20.90625 -13.289062 18.429688 -14.363281 15.265625 -15.34375 C 12.734375 -16.125 10.53125 -16.9375 8.65625 -17.78125 C 6.78125 -18.632812 5.34375 -19.734375 4.34375 -21.078125 C 3.34375 -22.421875 2.84375 -24.1875 2.84375 -26.375 C 2.84375 -28.226562 3.34375 -29.96875 4.34375 -31.59375 C 5.34375 -33.226562 6.890625 -34.546875 8.984375 -35.546875 C 11.078125 -36.546875 13.78125 -37.046875 17.09375 -37.046875 C 19.1875 -37.046875 21.253906 -36.875 23.296875 -36.53125 C 25.347656 -36.1875 26.984375 -35.75 28.203125 -35.21875 L 28.5625 -27.171875 L 27.6875 -27.03125 C 26.46875 -29.613281 24.773438 -31.753906 22.609375 -33.453125 C 20.441406 -35.160156 18.019531 -36.015625 15.34375 -36.015625 C 13.050781 -36.015625 11.210938 -35.476562 9.828125 -34.40625 C 8.441406 -33.34375 7.75 -32.03125 7.75 -30.46875 C 7.75 -28.414062 8.632812 -26.84375 10.40625 -25.75 C 12.1875 -24.65625 14.707031 -23.550781 17.96875 -22.4375 C 19.914062 -21.800781 21.828125 -21.09375 23.703125 -20.3125 C 25.578125 -19.53125 27.132812 -18.445312 28.375 -17.0625 C 29.625 -15.675781 30.25 -13.738281 30.25 -11.25 C 30.25 -9.394531 29.8125 -7.554688 28.9375 -5.734375 C 28.0625 -3.910156 26.597656 -2.398438 24.546875 -1.203125 C 22.503906 -0.015625 19.703125 0.578125 16.140625 0.578125 Z M 16.140625 0.578125 "/></g></g></g><g fill="#1f69cb" fill-opacity="1"><g transform="translate(33.564911, 74.9219)"><g><path d="M 29.953125 0 C 28.003906 0 27.03125 -0.972656 27.03125 -2.921875 L 27.03125 -14.984375 C 26.351562 -12.148438 25.332031 -9.539062 23.96875 -7.15625 C 22.601562 -4.769531 20.921875 -2.859375 18.921875 -1.421875 C 16.921875 0.015625 14.65625 0.734375 12.125 0.734375 C 9.445312 0.734375 7.117188 -0.09375 5.140625 -1.75 C 3.171875 -3.40625 2.1875 -5.769531 2.1875 -8.84375 C 2.1875 -11.375 2.953125 -13.429688 4.484375 -15.015625 C 6.023438 -16.597656 8.0625 -17.925781 10.59375 -19 C 13.125 -20.070312 15.898438 -21.019531 18.921875 -21.84375 L 27.03125 -24.1875 C 26.976562 -27.789062 26.0625 -30.359375 24.28125 -31.890625 C 22.507812 -33.421875 20.257812 -34.1875 17.53125 -34.1875 C 15.488281 -34.1875 13.46875 -33.710938 11.46875 -32.765625 C 9.46875 -31.816406 7.546875 -30.222656 5.703125 -27.984375 L 4.96875 -28.640625 C 7.007812 -31.171875 9.414062 -33.203125 12.1875 -34.734375 C 14.96875 -36.273438 18.015625 -37.046875 21.328125 -37.046875 C 25.765625 -37.046875 29.039062 -35.890625 31.15625 -33.578125 C 33.28125 -31.265625 34.34375 -27.863281 34.34375 -23.375 L 34.34375 -9.28125 C 34.34375 -6.644531 34.523438 -4.707031 34.890625 -3.46875 C 35.253906 -2.226562 36.046875 -1.410156 37.265625 -1.015625 L 37.265625 0 Z M 8.984375 -11.390625 C 8.984375 -9.003906 9.703125 -7.273438 11.140625 -6.203125 C 12.578125 -5.140625 14.125 -4.609375 15.78125 -4.609375 C 17.582031 -4.609375 19.175781 -5.15625 20.5625 -6.25 C 21.957031 -7.34375 23.128906 -8.753906 24.078125 -10.484375 C 25.023438 -12.210938 25.753906 -14.023438 26.265625 -15.921875 C 26.773438 -17.828125 27.03125 -19.609375 27.03125 -21.265625 L 27.03125 -23.15625 L 19.21875 -20.890625 C 18.34375 -20.648438 17.332031 -20.296875 16.1875 -19.828125 C 15.039062 -19.367188 13.914062 -18.773438 12.8125 -18.046875 C 11.71875 -17.316406 10.804688 -16.398438 10.078125 -15.296875 C 9.347656 -14.203125 8.984375 -12.898438 8.984375 -11.390625 Z M 8.984375 -11.390625 "/></g></g></g><g fill="#1f69cb" fill-opacity="1"><g transform="translate(72.291898, 74.9219)"><g><path d="M 2.5625 0 L 2.5625 -1.015625 C 3.78125 -1.410156 4.570312 -2.226562 4.9375 -3.46875 C 5.300781 -4.707031 5.484375 -6.644531 5.484375 -9.28125 L 5.484375 -34.40625 L 1.234375 -34.40625 L 1.609375 -35.578125 L 5.484375 -35.578125 C 5.628906 -38.253906 6.367188 -40.867188 7.703125 -43.421875 C 9.046875 -45.984375 10.820312 -48.285156 13.03125 -50.328125 C 15.25 -52.378906 17.769531 -54.015625 20.59375 -55.234375 C 23.425781 -56.453125 26.375 -57.0625 29.4375 -57.0625 C 31 -57.0625 32.253906 -56.898438 33.203125 -56.578125 C 34.148438 -56.265625 34.625 -55.742188 34.625 -55.015625 C 34.625 -54.523438 34.394531 -53.890625 33.9375 -53.109375 C 33.476562 -52.335938 32.84375 -51.644531 32.03125 -51.03125 C 31.226562 -50.425781 30.269531 -50.125 29.15625 -50.125 C 27.300781 -50.125 25.492188 -50.351562 23.734375 -50.8125 C 21.984375 -51.28125 19.96875 -51.953125 17.6875 -52.828125 C 17 -52.484375 16.289062 -51.957031 15.5625 -51.25 C 14.832031 -50.539062 14.210938 -49.492188 13.703125 -48.109375 C 13.191406 -46.722656 12.9375 -44.765625 12.9375 -42.234375 L 12.9375 -35.578125 L 22.0625 -35.578125 L 21.703125 -34.40625 L 12.9375 -34.40625 L 12.9375 -9.28125 C 12.9375 -6.644531 13.117188 -4.707031 13.484375 -3.46875 C 13.847656 -2.226562 14.640625 -1.410156 15.859375 -1.015625 L 15.859375 0 Z M 2.5625 0 "/></g></g></g><g fill="#1f69cb" fill-opacity="1"><g transform="translate(93.116761, 74.9219)"><g><path d="M 19.578125 0.734375 C 17.535156 0.734375 15.503906 0.367188 13.484375 -0.359375 C 11.460938 -1.097656 9.597656 -2.195312 7.890625 -3.65625 C 6.179688 -5.113281 4.816406 -6.9375 3.796875 -9.125 C 2.773438 -11.320312 2.265625 -13.90625 2.265625 -16.875 C 2.265625 -19.988281 2.8125 -22.785156 3.90625 -25.265625 C 5 -27.753906 6.472656 -29.875 8.328125 -31.625 C 10.179688 -33.382812 12.238281 -34.726562 14.5 -35.65625 C 16.769531 -36.582031 19.097656 -37.046875 21.484375 -37.046875 C 24.796875 -37.046875 27.570312 -36.382812 29.8125 -35.0625 C 32.050781 -33.75 33.742188 -32.09375 34.890625 -30.09375 C 36.035156 -28.101562 36.609375 -26.035156 36.609375 -23.890625 L 8.90625 -23.890625 C 8.863281 -23.503906 8.828125 -23.113281 8.796875 -22.71875 C 8.773438 -22.332031 8.765625 -21.941406 8.765625 -21.546875 C 8.765625 -18.378906 9.382812 -15.554688 10.625 -13.078125 C 11.875 -10.597656 13.628906 -8.660156 15.890625 -7.265625 C 18.148438 -5.878906 20.816406 -5.1875 23.890625 -5.1875 C 26.617188 -5.1875 29.03125 -5.722656 31.125 -6.796875 C 33.21875 -7.867188 35.019531 -9.253906 36.53125 -10.953125 L 37.1875 -10.234375 C 36.070312 -8.523438 34.6875 -6.828125 33.03125 -5.140625 C 31.375 -3.460938 29.421875 -2.0625 27.171875 -0.9375 C 24.929688 0.175781 22.398438 0.734375 19.578125 0.734375 Z M 8.984375 -24.921875 L 29.21875 -24.921875 C 28.925781 -26.910156 28.304688 -28.722656 27.359375 -30.359375 C 26.410156 -31.992188 25.238281 -33.296875 23.84375 -34.265625 C 22.457031 -35.242188 20.914062 -35.734375 19.21875 -35.734375 C 17.164062 -35.773438 15.429688 -35.285156 14.015625 -34.265625 C 12.609375 -33.242188 11.488281 -31.90625 10.65625 -30.25 C 9.832031 -28.59375 9.273438 -26.816406 8.984375 -24.921875 Z M 8.984375 -24.921875 "/></g></g></g><g fill="#bb9433" fill-opacity="1"><g transform="translate(132.140573, 74.9219)"><g/></g></g><g fill="#bb9433" fill-opacity="1"><g transform="translate(146.754534, 74.9219)"><g><path d="M 2.046875 0 L 2.046875 -1.015625 C 3.265625 -1.410156 4.054688 -2.226562 4.421875 -3.46875 C 4.785156 -4.707031 4.96875 -6.644531 4.96875 -9.28125 L 4.96875 -26.078125 C 4.96875 -28.222656 4.710938 -29.632812 4.203125 -30.3125 C 3.691406 -31 2.972656 -31.535156 2.046875 -31.921875 L 2.046875 -32.953125 L 11.6875 -37.1875 L 12.421875 -36.609375 L 12.421875 -27.765625 C 13.535156 -30.390625 15.3125 -32.53125 17.75 -34.1875 C 19.113281 -35.164062 20.515625 -35.882812 21.953125 -36.34375 C 23.390625 -36.8125 24.984375 -37.046875 26.734375 -37.046875 C 28.003906 -37.046875 29.101562 -36.875 30.03125 -36.53125 C 30.957031 -36.1875 31.421875 -35.625 31.421875 -34.84375 C 31.421875 -34.3125 31.238281 -33.664062 30.875 -32.90625 C 30.507812 -32.15625 29.957031 -31.5 29.21875 -30.9375 C 28.488281 -30.382812 27.566406 -30.109375 26.453125 -30.109375 C 25.429688 -30.109375 24.175781 -30.289062 22.6875 -30.65625 C 21.195312 -31.019531 19.285156 -31.566406 16.953125 -32.296875 C 16.023438 -31.515625 15.0625 -30.367188 14.0625 -28.859375 C 13.0625 -27.347656 12.515625 -25.664062 12.421875 -23.8125 L 12.421875 -9.28125 C 12.421875 -6.644531 12.601562 -4.707031 12.96875 -3.46875 C 13.332031 -2.226562 14.125 -1.410156 15.34375 -1.015625 L 15.34375 0 Z M 2.046875 0 "/></g></g></g><g fill="#bb9433" fill-opacity="1"><g transform="translate(179.709005, 74.9219)"><g><path d="M 15.34375 0.734375 C 11.5 0.734375 8.710938 -0.429688 6.984375 -2.765625 C 5.253906 -5.109375 4.390625 -8.5 4.390625 -12.9375 L 4.390625 -26.078125 C 4.390625 -28.222656 4.128906 -29.632812 3.609375 -30.3125 C 3.097656 -31 2.382812 -31.535156 1.46875 -31.921875 L 1.46875 -32.953125 L 11.109375 -37.1875 L 11.84375 -36.609375 L 11.84375 -13.875 C 11.84375 -9.976562 12.28125 -7.054688 13.15625 -5.109375 C 14.03125 -3.160156 15.878906 -2.1875 18.703125 -2.1875 C 20.359375 -2.1875 22.0625 -2.660156 23.8125 -3.609375 C 25.570312 -4.566406 27.351562 -5.945312 29.15625 -7.75 L 29.15625 -26.078125 C 29.15625 -28.222656 28.898438 -29.632812 28.390625 -30.3125 C 27.878906 -31 27.160156 -31.535156 26.234375 -31.921875 L 26.234375 -32.953125 L 35.875 -37.1875 L 36.609375 -36.609375 L 36.609375 -9.28125 C 36.609375 -6.644531 36.789062 -4.707031 37.15625 -3.46875 C 37.519531 -2.226562 38.3125 -1.410156 39.53125 -1.015625 L 39.53125 0 L 32.078125 0 C 30.128906 0 29.15625 -0.972656 29.15625 -2.921875 L 29.15625 -6.203125 C 27.0625 -4.210938 24.804688 -2.554688 22.390625 -1.234375 C 19.984375 0.078125 17.632812 0.734375 15.34375 0.734375 Z M 15.34375 0.734375 "/></g></g></g><g fill="#bb9433" fill-opacity="1"><g transform="translate(221.431843, 74.9219)"><g><path d="M 21.921875 0.65625 C 20.265625 0.65625 18.664062 0.4375 17.125 0 C 15.59375 -0.4375 14.195312 -1.019531 12.9375 -1.75 L 12.9375 10.453125 C 12.9375 13.078125 13.117188 15.007812 13.484375 16.25 C 13.847656 17.5 14.640625 18.316406 15.859375 18.703125 L 15.859375 19.734375 L 2.5625 19.734375 L 2.5625 18.703125 C 3.78125 18.316406 4.570312 17.5 4.9375 16.25 C 5.300781 15.007812 5.484375 13.078125 5.484375 10.453125 L 5.484375 -26.078125 C 5.484375 -28.222656 5.226562 -29.632812 4.71875 -30.3125 C 4.207031 -31 3.488281 -31.535156 2.5625 -31.921875 L 2.5625 -32.953125 L 12.203125 -37.1875 L 12.9375 -36.609375 L 12.9375 -31.859375 C 14.882812 -33.222656 17.015625 -34.425781 19.328125 -35.46875 C 21.640625 -36.519531 24.0625 -37.046875 26.59375 -37.046875 C 29.613281 -37.046875 32.226562 -36.273438 34.4375 -34.734375 C 36.65625 -33.203125 38.375 -31.109375 39.59375 -28.453125 C 40.8125 -25.796875 41.421875 -22.789062 41.421875 -19.4375 C 41.421875 -15.726562 40.628906 -12.351562 39.046875 -9.3125 C 37.460938 -6.269531 35.207031 -3.847656 32.28125 -2.046875 C 29.363281 -0.242188 25.910156 0.65625 21.921875 0.65625 Z M 12.9375 -12.203125 C 12.9375 -10.929688 13.300781 -9.625 14.03125 -8.28125 C 14.757812 -6.945312 15.707031 -5.707031 16.875 -4.5625 C 18.039062 -3.414062 19.316406 -2.488281 20.703125 -1.78125 C 22.097656 -1.082031 23.476562 -0.734375 24.84375 -0.734375 C 27.46875 -0.734375 29.488281 -1.363281 30.90625 -2.625 C 32.320312 -3.894531 33.285156 -5.539062 33.796875 -7.5625 C 34.304688 -9.582031 34.5625 -11.6875 34.5625 -13.875 C 34.5625 -15.195312 34.453125 -16.734375 34.234375 -18.484375 C 34.015625 -20.234375 33.632812 -22.007812 33.09375 -23.8125 C 32.5625 -25.613281 31.796875 -27.296875 30.796875 -28.859375 C 29.796875 -30.421875 28.539062 -31.675781 27.03125 -32.625 C 25.519531 -33.570312 23.671875 -34.046875 21.484375 -34.046875 C 19.867188 -34.046875 18.351562 -33.71875 16.9375 -33.0625 C 15.53125 -32.40625 14.195312 -31.585938 12.9375 -30.609375 Z M 12.9375 -12.203125 "/></g></g></g><g fill="#bb9433" fill-opacity="1"><g transform="translate(265.127559, 74.9219)"><g><path d="M 19.578125 0.734375 C 17.535156 0.734375 15.503906 0.367188 13.484375 -0.359375 C 11.460938 -1.097656 9.597656 -2.195312 7.890625 -3.65625 C 6.179688 -5.113281 4.816406 -6.9375 3.796875 -9.125 C 2.773438 -11.320312 2.265625 -13.90625 2.265625 -16.875 C 2.265625 -19.988281 2.8125 -22.785156 3.90625 -25.265625 C 5 -27.753906 6.472656 -29.875 8.328125 -31.625 C 10.179688 -33.382812 12.238281 -34.726562 14.5 -35.65625 C 16.769531 -36.582031 19.097656 -37.046875 21.484375 -37.046875 C 24.796875 -37.046875 27.570312 -36.382812 29.8125 -35.0625 C 32.050781 -33.75 33.742188 -32.09375 34.890625 -30.09375 C 36.035156 -28.101562 36.609375 -26.035156 36.609375 -23.890625 L 8.90625 -23.890625 C 8.863281 -23.503906 8.828125 -23.113281 8.796875 -22.71875 C 8.773438 -22.332031 8.765625 -21.941406 8.765625 -21.546875 C 8.765625 -18.378906 9.382812 -15.554688 10.625 -13.078125 C 11.875 -10.597656 13.628906 -8.660156 15.890625 -7.265625 C 18.148438 -5.878906 20.816406 -5.1875 23.890625 -5.1875 C 26.617188 -5.1875 29.03125 -5.722656 31.125 -6.796875 C 33.21875 -7.867188 35.019531 -9.253906 36.53125 -10.953125 L 37.1875 -10.234375 C 36.070312 -8.523438 34.6875 -6.828125 33.03125 -5.140625 C 31.375 -3.460938 29.421875 -2.0625 27.171875 -0.9375 C 24.929688 0.175781 22.398438 0.734375 19.578125 0.734375 Z M 8.984375 -24.921875 L 29.21875 -24.921875 C 28.925781 -26.910156 28.304688 -28.722656 27.359375 -30.359375 C 26.410156 -31.992188 25.238281 -33.296875 23.84375 -34.265625 C 22.457031 -35.242188 20.914062 -35.734375 19.21875 -35.734375 C 17.164062 -35.773438 15.429688 -35.285156 14.015625 -34.265625 C 12.609375 -33.242188 11.488281 -31.90625 10.65625 -30.25 C 9.832031 -28.59375 9.273438 -26.816406 8.984375 -24.921875 Z M 8.984375 -24.921875 "/></g></g></g><g fill="#bb9433" fill-opacity="1"><g transform="translate(304.146821, 74.9219)"><g><path d="M 19.578125 0.734375 C 17.535156 0.734375 15.503906 0.367188 13.484375 -0.359375 C 11.460938 -1.097656 9.597656 -2.195312 7.890625 -3.65625 C 6.179688 -5.113281 4.816406 -6.9375 3.796875 -9.125 C 2.773438 -11.320312 2.265625 -13.90625 2.265625 -16.875 C 2.265625 -19.988281 2.8125 -22.785156 3.90625 -25.265625 C 5 -27.753906 6.472656 -29.875 8.328125 -31.625 C 10.179688 -33.382812 12.238281 -34.726562 14.5 -35.65625 C 16.769531 -36.582031 19.097656 -37.046875 21.484375 -37.046875 C 24.796875 -37.046875 27.570312 -36.382812 29.8125 -35.0625 C 32.050781 -33.75 33.742188 -32.09375 34.890625 -30.09375 C 36.035156 -28.101562 36.609375 -26.035156 36.609375 -23.890625 L 8.90625 -23.890625 C 8.863281 -23.503906 8.828125 -23.113281 8.796875 -22.71875 C 8.773438 -22.332031 8.765625 -21.941406 8.765625 -21.546875 C 8.765625 -18.378906 9.382812 -15.554688 10.625 -13.078125 C 11.875 -10.597656 13.628906 -8.660156 15.890625 -7.265625 C 18.148438 -5.878906 20.816406 -5.1875 23.890625 -5.1875 C 26.617188 -5.1875 29.03125 -5.722656 31.125 -6.796875 C 33.21875 -7.867188 35.019531 -9.253906 36.53125 -10.953125 L 37.1875 -10.234375 C 36.070312 -8.523438 34.6875 -6.828125 33.03125 -5.140625 C 31.375 -3.460938 29.421875 -2.0625 27.171875 -0.9375 C 24.929688 0.175781 22.398438 0.734375 19.578125 0.734375 Z M 8.984375 -24.921875 L 29.21875 -24.921875 C 28.925781 -26.910156 28.304688 -28.722656 27.359375 -30.359375 C 26.410156 -31.992188 25.238281 -33.296875 23.84375 -34.265625 C 22.457031 -35.242188 20.914062 -35.734375 19.21875 -35.734375 C 17.164062 -35.773438 15.429688 -35.285156 14.015625 -34.265625 C 12.609375 -33.242188 11.488281 -31.90625 10.65625 -30.25 C 9.832031 -28.59375 9.273438 -26.816406 8.984375 -24.921875 Z M 8.984375 -24.921875 "/></g></g></g><g fill="#bb9433" fill-opacity="1"><g transform="translate(343.166084, 74.9219)"><g><path d="M 1.609375 0 L 1.609375 -0.796875 L 19.953125 -35.359375 L 13.21875 -35.359375 C 10.882812 -35.359375 8.925781 -34.773438 7.34375 -33.609375 C 5.757812 -32.441406 4.332031 -30.203125 3.0625 -26.890625 L 2.1875 -27.03125 L 3.578125 -36.53125 L 28.421875 -36.53125 L 28.421875 -35.734375 L 10.234375 -1.171875 L 18.1875 -1.171875 C 20.675781 -1.171875 22.867188 -1.925781 24.765625 -3.4375 C 26.671875 -4.945312 27.863281 -7.625 28.34375 -11.46875 L 29.15625 -11.46875 L 28.859375 0 Z M 1.609375 0 "/></g></g></g></svg>